<?xml version="1.0" standalone="no"?>
<!DOCTYPE svg PUBLIC "-//W3C//DTD SVG 20010904//EN"
 "http://www.w3.org/TR/2001/REC-SVG-20010904/DTD/svg10.dtd">
<svg version="1.0" xmlns="http://www.w3.org/2000/svg"
 width="120.000000pt" height="120.000000pt" viewBox="0 0 120.000000 120.000000"
 preserveAspectRatio="xMidYMid meet">
<metadata>
Created by potrace 1.11, written by Peter Selinger 2001-2013
</metadata>
<g transform="translate(0.000000,120.000000) scale(0.100000,-0.100000)"
fill="#000000" stroke="none">
<path d="M561 1178 c-37 -20 -60 -74 -62 -148 l-2 -65 -77 -75 c-121 -117
-174 -227 -138 -285 3 -6 4 -30 1 -55 -9 -72 -6 -101 10 -117 20 -20 64 -10
72 18 5 16 10 18 21 8 14 -11 20 0 14 26 -19 78 -19 79 1 98 12 11 29 39 39
62 17 40 51 79 38 43 -4 -8 2 -30 13 -47 18 -30 19 -37 5 -121 -13 -80 -18
-93 -48 -122 -19 -18 -41 -42 -49 -53 -9 -13 -41 -27 -89 -39 -138 -35 -185
-63 -195 -118 -12 -66 44 -136 125 -154 80 -19 126 -5 365 111 155 75 335 144
423 161 39 8 126 50 142 69 8 10 15 37 14 61 0 53 -28 87 -89 107 -38 13 -129
17 -140 5 -3 -2 -38 28 -80 68 -55 53 -75 79 -75 98 0 22 3 24 23 17 12 -5 32
-5 45 0 15 6 35 4 59 -6 53 -22 83 -26 83 -10 0 7 -6 16 -12 18 -7 3 -3 6 10
7 43 4 62 14 62 34 0 22 -49 40 -106 38 -52 -1 -57 1 -92 40 -20 22 -43 52
-51 67 -7 14 -29 43 -49 63 -33 34 -35 42 -33 90 2 48 -1 56 -28 82 -35 34
-110 46 -150 24z m194 -679 c10 -15 -19 -47 -56 -62 l-37 -15 9 32 c5 17 9 45
9 63 l0 32 35 -20 c19 -12 37 -25 40 -30z"/>
</g>
</svg>
